<svg xmlns="http://www.w3.org/2000/svg" viewBox="0 0 100 130" fill="none">
<ellipse cx="50" cy="85" rx="22" ry="28" stroke="#1A1A1A" stroke-width="3" stroke-linecap="round"/>
<ellipse cx="50" cy="110" rx="14" ry="8" stroke="#1A1A1A" stroke-width="2.5"/>
<path d="M38 60C35 40 37 22 42 15" stroke="#1A1A1A" stroke-width="3" stroke-linecap="round"/>
<path d="M42 15C44 8 48 5 50 12C52 5 56 8 58 15" stroke="#1A1A1A" stroke-width="2.5" stroke-linecap="round" stroke-linejoin="round"/>
<path d="M62 60C65 40 63 22 58 15" stroke="#1A1A1A" stroke-width="3" stroke-linecap="round"/>
<circle cx="43" cy="78" r="2.5" fill="#1A1A1A"/>
<circle cx="57" cy="78" r="2.5" fill="#1A1A1A"/>
<path d="M47 85C48 87 52 87 53 85" stroke="#1A1A1A" stroke-width="2" stroke-linecap="round"/>
<circle cx="50" cy="82" r="1.5" fill="#1A1A1A"/>
<circle cx="28" cy="90" r="8" stroke="#1A1A1A" stroke-width="2.5"/>
<line x1="28" y1="84" x2="28" y2="90" stroke="#1A1A1A" stroke-width="2" stroke-linecap="round"/>
<line x1="28" y1="90" x2="33" y2="88" stroke="#1A1A1A" stroke-width="2" stroke-linecap="round"/>
<path d="M28 82L26 76" stroke="#1A1A1A" stroke-width="2" stroke-linecap="round"/>
</svg>
