<svg xmlns="http://www.w3.org/2000/svg" viewBox="0 0 120 140" fill="none">
<path d="M60 60C45 62 32 75 32 92C32 108 44 118 60 118C76 118 88 108 88 92C88 75 75 62 60 60Z" stroke="#1A1A1A" stroke-width="3.5" stroke-linecap="round" stroke-linejoin="round"/>
<path d="M60 60C60 60 58 45 60 35C62 25 68 18 68 18" stroke="#1A1A1A" stroke-width="3" stroke-linecap="round"/>
<path d="M60 38C55 32 48 30 42 33" stroke="#1A1A1A" stroke-width="2.5" stroke-linecap="round"/>
<ellipse cx="39" cy="30" rx="8" ry="12" transform="rotate(-25 39 30)" stroke="#1A1A1A" stroke-width="2.5" fill="none"/>
<path d="M68 18C72 22 78 23 82 20" stroke="#1A1A1A" stroke-width="2.5" stroke-linecap="round"/>
<ellipse cx="85" cy="17" rx="7" ry="10" transform="rotate(20 85 17)" stroke="#1A1A1A" stroke-width="2.5" fill="none"/>
</svg>
